# File created by Blade
# Date/Time:  Tue Jan 27 18:05:51 2015
#---------------------------------------------------------
:version 1.10
:name HOM
:units
  mass 1.0
  length 1.000000
  angle deg
:documentation
     Acclaim Skeleton File
:root
   axis xyz
   order TX TY TZ RX RY RZ
   position 0.000000 0.000000 0.000000
   orientation 0 0 0
:bonedata
   begin
      id 1
      name Spine_dum
      direction 0.000000 1.000000 0.000000
      length 5.195262
      axis 0.0 0.0 0.0 xyz
   end
   begin
      id 2
      name LeftUpLeg_dum
      direction 1.000000 0.000000 0.000000
      length 3.351363
      axis 0.0 0.0 0.0 xyz
   end
   begin
      id 3
      name RightUpLeg_dum
      direction -1.000000 0.000000 0.000000
      length 3.351363
      axis 0.0 0.0 0.0 xyz
   end
   begin
      id 4
      name Spine
      direction 0.000000 1.000000 0.000000
      length 0.000000
      axis 0.0 0.0 0.0 xyz
      dof rx ry rz
   end
   begin
      id 5
      name Spine_dum1
      direction 0.000000 1.000000 0.000000
      length 15.653875
      axis 0.0 0.0 0.0 xyz
   end
   begin
      id 6
      name Spine_dum2
      direction 0.000000 1.000000 0.000000
      length 10.329768
      axis 0.0 0.0 0.0 xyz
   end
   begin
      id 7
      name Spine_dum3
      direction 0.000000 1.000000 0.000000
      length 10.329768
      axis 0.0 0.0 0.0 xyz
   end
   begin
      id 8
      name Head
      direction 0.000000 1.000000 0.000000
      length 4.527550
      axis 0.0 0.0 0.0 xyz
      dof rx ry rz
   end
   begin
      id 9
      name LeftShoulder
      direction 1.000000 0.000000 0.000000
      length 6.996006
      axis 0.0 0.0 -90.0 xyz
      dof rx ry rz
   end
   begin
      id 10
      name LeftArm
      direction 1.000000 0.000000 0.000000
      length 10.209302
      axis 0.0 0.0 -90.0 xyz
      dof rx ry rz
   end
   begin
      id 11
      name LeftForeArm
      direction 1.000000 0.000000 0.000000
      length 8.563163
      axis 0.0 0.0 -90.0 xyz
      dof ry rz rx
   end
   begin
      id 12
      name LeftHand
      direction 0.000000 0.000000 0.000000
      length 0.000000
      axis 0.0 0.0 -90.0 xyz
      dof rx ry rz
   end
   begin
      id 13
      name LeftHand_dum1
      direction 0.000000 0.000000 0.000000
      length 0.000000
      axis 0.0 0.0 -90.0 xyz
   end
   begin
      id 14
      name LeftHand_dum2
      direction 1.000000 0.000000 0.000000
      length 3.937000
      axis 0.0 0.0 -90.0 xyz
   end
   begin
      id 15
      name LeftHandThumb1
      direction 0.000000 0.000000 1.000000
      length 3.937000
      axis 0.0 0.0 -90.0 xyz
      dof rx rz ry
   end
   begin
      id 16
      name RightShoulder
      direction -1.000000 0.000000 0.000000
      length 6.996006
      axis 0.0 0.0 90.0 xyz
      dof rx ry rz
   end
   begin
      id 17
      name RightArm
      direction -1.000000 0.000000 0.000000
      length 10.209302
      axis 0.0 0.0 90.0 xyz
      dof rx ry rz
   end
   begin
      id 18
      name RightForeArm
      direction -1.000000 0.000000 0.000000
      length 8.563163
      axis 0.0 0.0 90.0 xyz
      dof ry rz rx
   end
   begin
      id 19
      name RightHand
      direction 0.000000 0.000000 0.000000
      length 0.000000
      axis 0.0 0.0 90.0 xyz
      dof rx ry rz
   end
   begin
      id 20
      name RightHand_dum1
      direction 0.000000 0.000000 0.000000
      length 0.000000
      axis 0.0 0.0 90.0 xyz
   end
   begin
      id 21
      name RightHand_dum2
      direction -1.000000 0.000000 0.000000
      length 3.937000
      axis 0.0 0.0 90.0 xyz
   end
   begin
      id 22
      name RightHandThumb1
      direction 0.000000 0.000000 1.000000
      length 3.937000
      axis 0.0 0.0 90.0 xyz
      dof rx rz ry
   end
   begin
      id 23
      name LeftUpLeg
      direction 0.000000 -1.000000 0.000000
      length 16.346831
      axis 0.0 0.0 0.0 xyz
      dof rx ry rz
   end
   begin
      id 24
      name LeftLeg
      direction 0.000000 -1.000000 0.000000
      length 13.959795
      axis 0.0 0.0 0.0 xyz
      dof rx ry rz
   end
   begin
      id 25
      name LeftFoot
      direction 0.000000 -0.258819 0.965926
      length 5.165550
      axis 15.0 0.0 0.0 xyz
      dof rx ry rz
   end
   begin
      id 26
      name LeftToeBase
      direction 0.000000 0.000000 1.000000
      length 2.952750
      axis 0.0 0.0 0.0 xyz
      dof rx ry rz
   end
   begin
      id 27
      name RightUpLeg
      direction 0.000000 -1.000000 0.000000
      length 16.346831
      axis 0.0 0.0 0.0 xyz
      dof rx ry rz
   end
   begin
      id 28
      name RightLeg
      direction 0.000000 -1.000000 0.000000
      length 13.959795
      axis 0.0 0.0 0.0 xyz
      dof rx ry rz
   end
   begin
      id 29
      name RightFoot
      direction 0.000000 -0.258819 0.965926
      length 5.165550
      axis 15.0 0.0 0.0 xyz
      dof rx ry rz
   end
   begin
      id 30
      name RightToeBase
      direction 0.000000 0.000000 1.000000
      length 2.952750
      axis 0.0 0.0 0.0 xyz
      dof rx ry rz
   end
:hierarchy
   begin
      root Spine_dum LeftUpLeg_dum RightUpLeg_dum
      Spine_dum Spine
      LeftUpLeg_dum LeftUpLeg
      RightUpLeg_dum RightUpLeg
      Spine Spine_dum1 Spine_dum2 Spine_dum3
      Spine_dum1 Head
      Spine_dum2 LeftShoulder
      Spine_dum3 RightShoulder
      LeftShoulder LeftArm
      LeftArm LeftForeArm
      LeftForeArm LeftHand
      LeftHand LeftHand_dum1 LeftHand_dum2
      LeftHand_dum1 LeftHandThumb1
      RightShoulder RightArm
      RightArm RightForeArm
      RightForeArm RightHand
      RightHand RightHand_dum1 RightHand_dum2
      RightHand_dum1 RightHandThumb1
      LeftUpLeg LeftLeg
      LeftLeg LeftFoot
      LeftFoot LeftToeBase
      RightUpLeg RightLeg
      RightLeg RightFoot
      RightFoot RightToeBase
   end

# File created by Blade
# Date/Time:  Tue Jan 27 18:05:41 2015
# Frame Rate: 120.000 fps
#------------------------------------------------------
:FULLY-SPECIFIED
:DEGREES
1023
root -1.110822 31.909443 -6.018897 8.059935 25.254108 6.073821
Spine -8.658892 3.177914 -3.079890
Head 1.740606 -8.192603 -9.594797
LeftShoulder -8.668621 14.747975 4.711179
LeftArm 24.543950 40.296535 -70.813436
LeftForeArm -2.218840 0.000000 14.111632
LeftHand -10.950818 -0.000000 -5.699096
LeftHandThumb1 -26.253704 0.000000 33.147579
RightShoulder -6.122953 45.310153 -49.217677
RightArm 83.163413 31.108635 123.156789
RightForeArm 48.960545 0.000000 150.657863
RightHand 6.749353 0.000000 24.671581
RightHandThumb1 -24.326973 -0.000000 -32.862282
LeftUpLeg -3.471240 -11.743920 -1.759904
LeftLeg 0.954358 -0.000000 -0.000000
LeftFoot -12.785945 10.291487 -23.540527
LeftToeBase 8.396438 -0.000000 -0.000000
RightUpLeg 4.809379 -14.743333 -4.698766
RightLeg -4.132156 -0.000000 0.000000
RightFoot -18.301451 -21.112500 12.852433
RightToeBase 5.361503 -0.000000 -0.000000
1024
root -1.105322 31.909356 -6.016237 8.084812 25.318339 6.101986
Spine -8.692071 3.122477 -3.096449
Head 1.852303 -8.168314 -9.549682
LeftShoulder -8.677467 14.747438 4.705254
LeftArm 24.517783 40.311134 -70.835777
LeftForeArm -2.232065 -0.000000 14.074045
LeftHand -10.953433 -0.000000 -5.699397
LeftHandThumb1 -26.253704 0.000000 33.147579
RightShoulder -6.393404 45.484356 -49.486721
RightArm 83.128481 31.119947 123.160234
RightForeArm 48.939351 -0.000000 150.685477
RightHand 6.690472 -0.000000 24.704070
RightHandThumb1 -24.326973 -0.000000 -32.862282
LeftUpLeg -3.444509 -11.902604 -1.771359
LeftLeg 0.877540 -0.000000 -0.000000
LeftFoot -12.779166 10.360769 -23.598918
LeftToeBase 8.378855 -0.000000 -0.000000
RightUpLeg 4.819551 -14.770635 -4.724090
RightLeg -4.132565 -0.000000 0.000000
RightFoot -18.329221 -21.138494 12.885381
RightToeBase 5.347952 -0.000000 -0.000000
1025
root -1.101085 31.908304 -6.011981 8.097966 25.379230 6.117298
Spine -8.727047 3.070642 -3.112513
Head 1.983100 -8.170430 -9.506298
LeftShoulder -8.693106 14.762926 4.709764
LeftArm 24.501186 40.295009 -70.876392
LeftForeArm -2.210333 -0.000000 14.021959
LeftHand -10.904980 -0.000000 -5.685953
LeftHandThumb1 -26.253704 0.000000 33.147579
RightShoulder -6.587454 45.507897 -49.677639
RightArm 83.243742 31.098660 123.223024
RightForeArm 48.899708 -0.000000 150.708571
RightHand 6.700475 -0.000000 24.766723
RightHandThumb1 -24.326973 -0.000000 -32.862282
LeftUpLeg -3.437848 -11.933974 -1.782781
LeftLeg 0.860522 -0.000000 -0.000000
LeftFoot -12.763194 10.348526 -23.575347
LeftToeBase 8.378210 -0.000000 -0.000000
RightUpLeg 4.836831 -14.801090 -4.735407
RightLeg -4.133932 -0.000000 0.000000
RightFoot -18.349107 -21.158352 12.894372
RightToeBase 5.364797 -0.000000 -0.000000
1026
root -1.098653 31.907091 -6.008664 8.111986 25.451020 6.123405
Spine -8.761821 3.008883 -3.120605
Head 2.109539 -8.173370 -9.460962
LeftShoulder -8.699007 14.767843 4.721123
LeftArm 24.468438 40.278629 -70.923550
LeftForeArm -2.215072 0.000000 13.990935
LeftHand -10.936405 0.000000 -5.645964
LeftHandThumb1 -26.253704 0.000000 33.147579
RightShoulder -6.787893 45.503984 -49.862689
RightArm 83.283197 31.066370 123.224407
RightForeArm 48.904533 -0.000000 150.739522
RightHand 6.671926 0.000000 24.630204
RightHandThumb1 -24.326973 -0.000000 -32.862282
LeftUpLeg -3.438979 -11.987751 -1.780404
LeftLeg 0.840699 -0.000000 -0.000000
LeftFoot -12.755989 10.342040 -23.582352
LeftToeBase 8.356685 -0.000000 -0.000000
RightUpLeg 4.849345 -14.821481 -4.732228
RightLeg -4.137330 -0.000000 0.000000
RightFoot -18.386576 -21.199909 12.938030
RightToeBase 5.388942 -0.000000 -0.000000
1027
root -1.090899 31.905562 -6.001194 8.103989 25.515475 6.157488
Spine -8.783710 2.941877 -3.142952
Head 2.273254 -8.188190 -9.455662
LeftShoulder -8.706957 14.762068 4.730031
LeftArm 24.389411 40.272927 -71.000783
LeftForeArm -2.187896 0.000000 13.963248
LeftHand -10.941157 -0.000000 -5.600223
LeftHandThumb1 -26.253704 0.000000 33.147579
RightShoulder -6.916529 45.423113 -49.968478
RightArm 83.416330 30.967319 123.256320
RightForeArm 48.820144 -0.000000 150.759031
RightHand 6.596291 -0.000000 24.580356
RightHandThumb1 -24.326973 -0.000000 -32.862282
LeftUpLeg -3.386670 -12.033324 -1.818352
LeftLeg 0.808210 -0.000000 -0.000000
LeftFoot -12.739015 10.331952 -23.563667
LeftToeBase 8.378809 -0.000000 -0.000000
RightUpLeg 4.917157 -14.889474 -4.777786
RightLeg -4.158106 -0.000000 0.000000
RightFoot -18.398940 -21.177392 12.950332
RightToeBase 5.377101 -0.000000 -0.000000
1028
root -1.086691 31.904433 -5.996377 8.100480 25.572649 6.168685
Spine -8.815442 2.890615 -3.153063
Head 2.443941 -8.236197 -9.439718
LeftShoulder -8.708239 14.779579 4.739580
LeftArm 24.356306 40.255877 -71.051120
LeftForeArm -2.159489 -0.000000 13.929706
LeftHand -10.925581 -0.000000 -5.572561
LeftHandThumb1 -26.253704 0.000000 33.147579
RightShoulder -7.023121 45.366930 -50.042455
RightArm 83.498519 30.894151 123.277647
RightForeArm 48.766602 -0.000000 150.764018
RightHand 6.589911 -0.000000 24.685729
RightHandThumb1 -24.326973 -0.000000 -32.862282
LeftUpLeg -3.365843 -12.051809 -1.829476
LeftLeg 0.802010 -0.000000 -0.000000
LeftFoot -12.737711 10.301385 -23.534798
LeftToeBase 8.366310 -0.000000 -0.000000
RightUpLeg 4.950929 -14.899159 -4.788389
RightLeg -4.161739 -0.000000 0.000000
RightFoot -18.430144 -21.216854 12.979167
RightToeBase 5.379542 -0.000000 -0.000000
1029
root -1.082371 31.903104 -5.990053 8.085953 25.632486 6.179783
Spine -8.839833 2.835779 -3.159975
Head 2.619108 -8.285798 -9.448822
LeftShoulder -8.703284 14.801964 4.748675
LeftArm 24.317306 40.227240 -71.098400
LeftForeArm -2.154397 0.000000 13.911637
LeftHand -10.910888 -0.000000 -5.586182
LeftHandThumb1 -26.253704 0.000000 33.147579
RightShoulder -7.112573 45.365871 -50.116378
RightArm 83.497624 30.861344 123.262685
RightForeArm 48.760092 -0.000000 150.785892
RightHand 6.645293 -0.000000 24.672435
RightHandThumb1 -24.326973 -0.000000 -32.862282
LeftUpLeg -3.327399 -12.082912 -1.840525
LeftLeg 0.781294 -0.000000 -0.000000
LeftFoot -12.727336 10.278705 -23.532337
LeftToeBase 8.337467 -0.000000 -0.000000
RightUpLeg 5.002468 -14.895180 -4.801440
RightLeg -4.171523 -0.000000 0.000000
RightFoot -18.454447 -21.269250 13.013035
RightToeBase 5.361352 -0.000000 -0.000000
1030
root -1.074392 31.902057 -5.982774 8.074319 25.672691 6.197375
Spine -8.877800 2.800919 -3.169881
Head 2.812491 -8.356222 -9.471016
LeftShoulder -8.702251 14.836554 4.749233
LeftArm 24.288119 40.208935 -71.139793
LeftForeArm -2.152988 -0.000000 13.885221
LeftHand -10.920905 -0.000000 -5.581808
LeftHandThumb1 -26.253704 0.000000 33.147579
RightShoulder -7.098567 45.161959 -50.078802
RightArm 83.689239 30.724952 123.303403
RightForeArm 48.714887 -0.000000 150.811130
RightHand 6.636775 -0.000000 24.521924
RightHandThumb1 -24.326973 -0.000000 -32.862282
LeftUpLeg -3.287325 -12.073946 -1.867340
LeftLeg 0.775201 -0.000000 -0.000000
LeftFoot -12.721947 10.227863 -23.523031
LeftToeBase 8.357101 -0.000000 -0.000000
RightUpLeg 5.050147 -14.894227 -4.831330
RightLeg -4.166163 -0.000000 0.000000
RightFoot -18.498769 -21.275725 13.064157
RightToeBase 5.368574 -0.000000 -0.000000
1031
root -1.070093 31.900703 -5.977319 8.047671 25.719991 6.204833
Spine -8.893480 2.765562 -3.176142
Head 3.001215 -8.470379 -9.496736
LeftShoulder -8.679675 14.847409 4.766187
LeftArm 24.238059 40.184443 -71.195646
LeftForeArm -2.178422 -0.000000 13.868051
LeftHand -10.911913 -0.000000 -5.589110
LeftHandThumb1 -26.253704 0.000000 33.147579
RightShoulder -7.073537 45.034586 -50.035325
RightArm 83.804573 30.639812 123.323258
RightForeArm 48.769015 0.000000 150.856680
RightHand 6.598756 -0.000000 24.337829
RightHandThumb1 -24.326973 -0.000000 -32.862282
LeftUpLeg -3.245134 -12.097340 -1.878527
LeftLeg 0.766970 -0.000000 -0.000000
LeftFoot -12.730657 10.204174 -23.527243
LeftToeBase 8.369624 -0.000000 -0.000000
RightUpLeg 5.098362 -14.894270 -4.845266
RightLeg -4.153784 -0.000000 0.000000
RightFoot -18.535192 -21.314755 13.066590
RightToeBase 5.417050 -0.000000 -0.000000
1032
root -1.066729 31.899952 -5.972612 8.029041 25.751940 6.219903
Spine -8.912427 2.752307 -3.197601
Head 3.188379 -8.602795 -9.530880
LeftShoulder -8.645054 14.856579 4.783138
LeftArm 24.192158 40.170213 -71.231386
LeftForeArm -2.193050 -0.000000 13.869778
LeftHand -10.922581 -0.000000 -5.581054
LeftHandThumb1 -26.253704 0.000000 33.147579
RightShoulder -7.048551 44.957397 -49.985474
RightArm 83.869013 30.597463 123.373142
RightForeArm 48.740390 -0.000000 150.890288
RightHand 6.548751 -0.000000 24.335459
RightHandThumb1 -24.326973 -0.000000 -32.862282
LeftUpLeg -3.211860 -12.107041 -1.896789
LeftLeg 0.764333 -0.000000 -0.000000
LeftFoot -12.707293 10.178827 -23.494006
LeftToeBase 8.343569 -0.000000 -0.000000
RightUpLeg 5.137080 -14.855544 -4.864061
RightLeg -4.142816 -0.000000 0.000000
RightFoot -18.566724 -21.379105 13.099003
RightToeBase 5.349639 -0.000000 -0.000000
